PathFileType	4	(X/Y/Z)	/Users/itak/Documents/Research/Walk-IL/dataset/trc/00402_00012.trc
DataRate	CameraRate	NumFrames	NumMarkers	Units	OrigDataRate	OrigDataStartFrame	OrigNumFrames
100.000000	100.000000	4	53	mm	100.000000	583	667
Frame#	Time	RPSI			LPSI			L3			STRN			T10			C7			CLAV			RBAK			LBAK			LSHO			LUPA			LAEL			LAOL			LWTS			LWPS			LFRA			LIFD			LHPS			LHTS			RSHO			RUPA			RAEL			RAOL			RWTS			RWPS			RFRA			RIFD			RHTS			RHPS			RBHD			LFHD			RFHD			LBHD			LHIP			RHIP			RASI			LASI			LKNE			LTHI			LANK			LTIP			LTOE			LMT1			LMT5			LHEE			RKNE			RTHI			RANK			RTIP			RTOE			RMT1			RMT5			RHEE			
		X1	Y1	Z1	X2	Y2	Z2	X3	Y3	Z3	X4	Y4	Z4	X5	Y5	Z5	X6	Y6	Z6	X7	Y7	Z7	X8	Y8	Z8	X9	Y9	Z9	X10	Y10	Z10	X11	Y11	Z11	X12	Y12	Z12	X13	Y13	Z13	X14	Y14	Z14	X15	Y15	Z15	X16	Y16	Z16	X17	Y17	Z17	X18	Y18	Z18	X19	Y19	Z19	X20	Y20	Z20	X21	Y21	Z21	X22	Y22	Z22	X23	Y23	Z23	X24	Y24	Z24	X25	Y25	Z25	X26	Y26	Z26	X27	Y27	Z27	X28	Y28	Z28	X29	Y29	Z29	X30	Y30	Z30	X31	Y31	Z31	X32	Y32	Z32	X33	Y33	Z33	X34	Y34	Z34	X35	Y35	Z35	X36	Y36	Z36	X37	Y37	Z37	X38	Y38	Z38	X39	Y39	Z39	X40	Y40	Z40	X41	Y41	Z41	X42	Y42	Z42	X43	Y43	Z43	X44	Y44	Z44	X45	Y45	Z45	X46	Y46	Z46	X47	Y47	Z47	X48	Y48	Z48	X49	Y49	Z49	X50	Y50	Z50	X51	Y51	Z51	X52	Y52	Z52	X53	Y53	Z53	

584	5.83	-856.5189208984375	989.772705078125	21.7534008026123	-725.1109619140625	980.2635498046875	15.89079856872559	-793.2883911132812	1052.798583984375	17.07711601257324	-791.7471313476562	1218.920043945312	239.871337890625	-787.0685424804688	1154.373657226562	-4.779814720153809	-774.630615234375	1405.142456054688	19.92563438415527	-787.4028930664062	1335.196411132812	180.9256591796875	-842.402099609375	1257.706176757812	-16.82159042358398	-671.630859375	1366.6240234375	10.28507137298584	-625.5249633789062	1388.154663085938	97.85048675537109	-555.8433837890625	1270.168212890625	85.01493072509766	-527.5411376953125	1077.938842773438	132.6302032470703	-586.517822265625	1048.242309570312	77.83582305908203	-561.5460815429688	915.7212524414062	293.0269470214844	-503.3972778320312	881.8671875	246.1364898681641	-516.1165161132812	986.476806640625	177.6737213134766	-547.1183471679688	754.3419189453125	371.5055541992188	-506.2514343261719	810.9260864257812	295.9312744140625	-535.5790405273438	836.3857421875	346.7009582519531	-932.6732788085938	1392.017822265625	70.70812225341797	-991.480224609375	1329.16845703125	55.24236297607422	-1045.691284179688	1070.447143554688	61.89313888549805	-953.0161743164062	1055.2275390625	54.54967498779297	-1051.299560546875	858.1146240234375	195.0815124511719	-1106.092529296875	852.3135986328125	144.9697570800781	-1071.207885742188	1009.631896972656	85.60151672363281	-1068.54931640625	683.7968139648438	186.2413482666016	-1079.24609375	753.260009765625	206.3515014648438	-1113.368041992188	763.88330078125	146.2020263671875	-864.5579833984375	1601.466796875	94.74745178222656	-682.4542846679688	1598.636352539062	171.5552673339844	-796.9269409179688	1611.955200195312	209.7730102539062	-720.415771484375	1580.578857421875	28.01648712158203	-612.66650390625	967.7220458984375	101.9220962524414	-963.3504638671875	963.95361328125	106.8955383300781	-912.43896484375	975.8644409179688	240.0761871337891	-649.77734375	968.8798217773438	219.8573913574219	-640.4452514648438	474.7335510253906	133.7084655761719	-627.3696899414062	617.2968139648438	131.7859649658203	-697.759765625	40.04315948486328	40.06253814697266	-658.4789428710938	244.9327697753906	80.95597839355469	-758.4033203125	46.05952453613281	252.9434509277344	-789.684814453125	44.86557388305664	174.2141876220703	-684.3533325195312	41.89812469482422	167.3725738525391	-753.6497192382812	38.69401168823242	0.9643412828445435	-946.955078125	477.896728515625	116.3198699951172	-965.540771484375	738.4293823242188	176.4553833007812	-909.9526977539062	57.39493179321289	48.40568542480469	-932.9187622070312	351.7156372070312	119.0956878662109	-875.3145141601562	39.53978729248047	235.1287231445312	-831.714599609375	43.45048904418945	164.7355499267578	-929.2803955078125	46.96783065795898	128.8833923339844	-849.0009765625	46.23710250854492	-16.55753898620605	
585	5.84	-856.5855102539062	989.9572143554688	22.60161018371582	-725.22412109375	980.4808959960938	16.54298782348633	-793.3989868164062	1052.855224609375	17.86223220825195	-791.959228515625	1218.864868164062	240.6568145751953	-787.4119873046875	1154.348388671875	-3.893141031265259	-775.3281860351562	1405.134765625	20.69948577880859	-787.9011840820312	1335.149780273438	181.7005920410156	-842.9219970703125	1257.661254882812	-16.00973129272461	-672.2732543945312	1366.752563476562	10.96199512481689	-626.1058959960938	1388.320922851562	98.46080017089844	-556.2650146484375	1270.439819335938	85.63619232177734	-527.855712890625	1078.3193359375	133.6413726806641	-586.6834716796875	1048.448974609375	78.76840209960938	-561.7655639648438	916.2550048828125	294.3048095703125	-503.5140686035156	882.629150390625	247.5781402587891	-516.31396484375	987.0224609375	178.8789520263672	-547.4279174804688	754.7565307617188	372.6313171386719	-506.2278747558594	811.6705932617188	297.3503723144531	-535.8125	836.9614868164062	348.0343322753906	-933.2844848632812	1391.791870117188	71.65505981445312	-991.9324951171875	1328.97412109375	56.00823593139648	-1045.48828125	1070.128540039062	60.99627685546875	-952.660400390625	1055.14501953125	54.44308471679688	-1052.2099609375	856.1842651367188	191.4580383300781	-1106.402465820312	851.09423828125	140.7329406738281	-1071.117431640625	1009.111938476562	83.82456970214844	-1069.286499023438	681.9264526367188	179.7014465332031	-1080.111328125	751.0707397460938	200.8368377685547	-1113.65087890625	762.6680908203125	140.5646362304688	-865.102294921875	1601.46533203125	95.66936492919922	-682.7653198242188	1598.604614257812	171.83349609375	-797.0626220703125	1612.027709960938	210.4570007324219	-721.1802978515625	1580.438110351562	28.46038246154785	-612.6463012695312	967.7637329101562	102.3755111694336	-963.2505493164062	963.8648681640625	107.8555526733398	-912.255126953125	975.7062377929688	240.9846038818359	-649.670166015625	969.0277709960938	220.6792297363281	-640.298095703125	474.7333984375	133.4761962890625	-627.2354125976562	617.32177734375	131.673095703125	-697.7897338867188	40.06702041625977	40.07168579101562	-658.5117797851562	244.9138793945312	80.8438720703125	-758.3787841796875	46.0472526550293	252.9634704589844	-789.70947265625	44.84525680541992	174.2363586425781	-684.3678588867188	41.88825988769531	167.3730926513672	-753.677734375	38.70849609375	0.9736093878746033	-947.0497436523438	477.89013671875	116.4361801147461	-965.6094360351562	738.5881958007812	177.0286407470703	-909.9987182617188	57.35286331176758	48.36172485351562	-933.0647583007812	351.7243957519531	119.099479675293	-875.331787109375	39.57360076904297	235.0963745117188	-831.7106323242188	43.42834091186523	164.6763458251953	-929.3653564453125	46.91794204711914	128.8377990722656	-849.0491333007812	46.23551177978516	-16.58843231201172	
586	5.850000000000001	-856.65283203125	990.0969848632812	23.40372276306152	-725.372314453125	980.6377563476562	17.15125465393066	-793.5087280273438	1052.8984375	18.60452842712402	-792.1881713867188	1218.782348632812	241.4134674072266	-787.6885986328125	1154.321166992188	-3.013646841049194	-775.9722900390625	1405.125	21.46476554870605	-788.3779296875	1335.08642578125	182.4679870605469	-843.3674926757812	1257.606689453125	-15.21131801605225	-672.8933715820312	1366.87890625	11.63513660430908	-626.6691284179688	1388.483764648438	99.08676147460938	-556.6758422851562	1270.703857421875	86.24693298339844	-528.1367797851562	1078.666015625	134.5992889404297	-586.8441162109375	1048.631591796875	79.63215637207031	-562.0523071289062	916.5906372070312	295.3538513183594	-503.7012634277344	883.2525024414062	248.8070373535156	-516.508056640625	987.4981079101562	179.9777069091797	-547.833984375	754.8880615234375	373.3635559082031	-506.3060607910156	812.2127685546875	298.4769592285156	-536.1558837890625	837.2656860351562	349.071533203125	-933.8764038085938	1391.554443359375	72.55861663818359	-992.34619140625	1328.775756835938	56.72812652587891	-1045.312133789062	1069.820678710938	60.02539825439453	-952.3170166015625	1055.059814453125	54.26886367797852	-1053.140625	854.4464111328125	187.9759063720703	-1106.703857421875	849.9968872070312	136.6911773681641	-1071.033447265625	1008.621215820312	82.03240203857422	-1069.842895507812	680.28125	173.5488586425781	-1080.835327148438	749.1011962890625	195.6425018310547	-1113.853637695312	761.5751342773438	135.2180938720703	-865.6556396484375	1601.442016601562	96.54512023925781	-683.09228515625	1598.599731445312	172.1142578125	-797.2128295898438	1612.106689453125	211.1154174804688	-721.9345703125	1580.297973632812	28.89203834533691	-612.6730346679688	967.7752685546875	102.8005065917969	-963.164794921875	963.7606811523438	108.7661895751953	-912.0856323242188	975.5325927734375	241.8435668945312	-649.5534057617188	969.1435546875	221.4446716308594	-640.173828125	474.7182006835938	133.3217315673828	-627.1334228515625	617.32763671875	131.6250762939453	-697.8237915039062	40.08926010131836	40.07997512817383	-658.5191040039062	244.8974914550781	80.77683258056641	-758.3615112304688	46.03121566772461	252.9871826171875	-789.73388671875	44.82061004638672	174.2579956054688	-684.3836059570312	41.88000869750977	167.3724822998047	-753.7022705078125	38.71871566772461	0.9825260043144226	-947.1257934570312	477.8729248046875	116.5156555175781	-965.7278442382812	738.737548828125	177.5846405029297	-910.0401000976562	57.3114128112793	48.30876541137695	-933.2105102539062	351.7219543457031	119.076789855957	-875.3495483398438	39.60630035400391	235.0657043457031	-831.7033081054688	43.38901901245117	164.61279296875	-929.4354248046875	46.86928558349609	128.7980651855469	-849.073974609375	46.22049713134766	-16.61442375183105	
587	5.86	-856.7268676757812	990.1847534179688	24.15697479248047	-725.550048828125	980.7337036132812	17.71749687194824	-793.6234741210938	1052.920288085938	19.29994773864746	-792.4157104492188	1218.669311523438	242.1481323242188	-787.9139404296875	1154.295532226562	-2.148478507995605	-776.5598754882812	1405.113159179688	22.22439765930176	-788.8092041015625	1335.001342773438	183.2381591796875	-843.7360229492188	1257.539306640625	-14.42633533477783	-673.4907836914062	1366.997680664062	12.30321502685547	-627.2142333984375	1388.64013671875	99.72691345214844	-557.0720825195312	1270.956909179688	86.84840393066406	-528.3756713867188	1078.971923828125	135.5027160644531	-587.019775390625	1048.786376953125	80.42439270019531	-562.4143676757812	916.736083984375	296.1766967773438	-503.9542236328125	883.7279663085938	249.8235015869141	-516.6859741210938	987.8944702148438	180.9660949707031	-548.3221435546875	754.7575073242188	373.7359008789062	-506.4993286132812	812.54736328125	299.3207397460938	-536.6041870117188	837.3060302734375	349.8275756835938	-934.4450073242188	1391.306640625	73.41990661621094	-992.721923828125	1328.568969726562	57.40203857421875	-1045.152587890625	1069.52294921875	59.00673294067383	-951.98681640625	1054.97119140625	54.02790069580078	-1054.035034179688	852.88671875	184.6752319335938	-1106.98828125	849.0086669921875	132.8700256347656	-1070.963989257812	1008.161376953125	80.24788665771484	-1070.2294921875	678.8440551757812	167.8316345214844	-1081.443603515625	747.345703125	190.7909851074219	-1113.9892578125	760.5908203125	130.1929016113281	-866.2106323242188	1601.396850585938	97.37709808349609	-683.4278564453125	1598.619140625	172.4022979736328	-797.3734741210938	1612.193603515625	211.7508087158203	-722.6898803710938	1580.151000976562	29.3096752166748	-612.745849609375	967.7604370117188	103.2006683349609	-963.1075439453125	963.6396484375	109.6165618896484	-911.9443359375	975.3422241210938	242.6423645019531	-649.4298095703125	969.2183227539062	222.1345062255859	-640.0709838867188	474.6906433105469	133.2358245849609	-627.066162109375	617.31298828125	131.6419372558594	-697.8551025390625	40.10748672485352	40.08647537231445	-658.5007934570312	244.8830108642578	80.74624633789062	-758.3519287109375	46.01398468017578	253.0122985839844	-789.755615234375	44.79446029663086	174.2773284912109	-684.3971557617188	41.8741569519043	167.3714294433594	-753.7213745117188	38.72416305541992	0.9911446571350098	-947.1802978515625	477.8450622558594	116.5656967163086	-965.8699340820312	738.8436279296875	178.118896484375	-910.0733032226562	57.27230072021484	48.24788665771484	-933.3479614257812	351.70654296875	119.0351791381836	-875.3685913085938	39.63716506958008	235.036865234375	-831.6930541992188	43.33799362182617	164.5505828857422	-929.4885864257812	46.82577133178711	128.7641296386719	-849.0736083984375	46.19308853149414	-16.63537406921387	
